<mxfile host="Electron" modified="2023-06-07T13:18:55.919Z" agent="Mozilla/5.0 (Windows NT 10.0; Win64; x64) AppleWebKit/537.36 (KHTML, like Gecko) draw.io/21.2.8 Chrome/112.0.5615.165 Electron/24.2.0 Safari/537.36" version="21.2.8" etag="LS6eNqW7IZbd72ri7DFL" type="device">
  <diagram id="fqNP7XdSABAeanSCSyro" name="Page-1">
    <mxGraphModel dx="2876" dy="702" grid="1" gridSize="10" guides="1" tooltips="1" connect="1" arrows="1" fold="1" page="1" pageScale="1" pageWidth="1600" pageHeight="1200" background="#FFFFFF" math="0" shadow="0">
      <root>
        <mxCell id="0" />
        <mxCell id="1" parent="0" />
        <mxCell id="157" value="" style="rounded=0;whiteSpace=wrap;html=1;strokeColor=#262f3e;strokeWidth=4;fontSize=24;fontColor=#4D4D4D;fillColor=#cad4e1;fillStyle=auto;gradientColor=none;movable=1;resizable=1;rotatable=1;deletable=1;editable=1;connectable=1;gradientDirection=south;" parent="1" vertex="1">
          <mxGeometry x="80" y="40" width="1520" height="680" as="geometry" />
        </mxCell>
        <mxCell id="58" value="" style="rounded=0;whiteSpace=wrap;html=1;strokeColor=#4495D1;strokeWidth=4;fillColor=#daeaf6;movable=1;resizable=1;rotatable=1;deletable=1;editable=1;connectable=1;gradientColor=none;" parent="1" vertex="1">
          <mxGeometry x="160" y="80" width="1400" height="600" as="geometry" />
        </mxCell>
        <mxCell id="60" value="" style="rounded=0;whiteSpace=wrap;html=1;strokeColor=#F58536;strokeWidth=4;fillColor=#fde7d7;movable=1;resizable=1;rotatable=1;deletable=1;editable=1;connectable=1;gradientColor=none;" parent="1" vertex="1">
          <mxGeometry x="240" y="120" width="1280" height="520" as="geometry" />
        </mxCell>
        <mxCell id="63" value="" style="rounded=0;whiteSpace=wrap;html=1;strokeColor=#242c3c;strokeWidth=4;fillColor=#cccccc;movable=1;resizable=1;rotatable=1;deletable=1;editable=1;connectable=1;gradientColor=none;" parent="1" vertex="1">
          <mxGeometry x="320" y="160" width="240" height="400" as="geometry" />
        </mxCell>
        <mxCell id="95" value="&lt;h1 style=&quot;line-height: 120%;&quot;&gt;&lt;font color=&quot;#4d4d4d&quot; style=&quot;font-size: 24px;&quot;&gt;Subnets: Public&lt;/font&gt;&lt;/h1&gt;" style="text;html=1;strokeColor=none;fillColor=none;spacing=5;spacingTop=-20;whiteSpace=wrap;overflow=hidden;rounded=0;strokeWidth=4;movable=1;resizable=1;rotatable=1;deletable=1;editable=1;connectable=1;" parent="1" vertex="1">
          <mxGeometry x="400" y="160" width="160" height="70" as="geometry" />
        </mxCell>
        <mxCell id="145" value="" style="endArrow=block;html=1;fontSize=24;strokeColor=#4D4D4D;strokeWidth=4;movable=1;resizable=1;rotatable=1;deletable=1;editable=1;connectable=1;endFill=1;entryX=0;entryY=0.5;entryDx=0;entryDy=0;startArrow=none;edgeStyle=orthogonalEdgeStyle;" parent="1" target="286" edge="1">
          <mxGeometry width="50" height="50" relative="1" as="geometry">
            <mxPoint x="130" y="360" as="sourcePoint" />
            <mxPoint x="160" y="360" as="targetPoint" />
            <Array as="points">
              <mxPoint x="190" y="360" />
              <mxPoint x="190" y="360" />
            </Array>
          </mxGeometry>
        </mxCell>
        <mxCell id="165" value="&lt;h1 style=&quot;line-height: 120%;&quot;&gt;&lt;font color=&quot;#4d4d4d&quot; style=&quot;font-size: 24px;&quot;&gt;Virtual Private Cloud: A&lt;/font&gt;&lt;/h1&gt;" style="text;html=1;strokeColor=none;fillColor=none;spacing=5;spacingTop=-20;whiteSpace=wrap;overflow=hidden;rounded=0;strokeWidth=4;movable=1;resizable=1;rotatable=1;deletable=1;editable=1;connectable=1;" parent="1" vertex="1">
          <mxGeometry x="320" y="120" width="280" height="40" as="geometry" />
        </mxCell>
        <mxCell id="166" value="&lt;h1 style=&quot;line-height: 120%;&quot;&gt;&lt;font color=&quot;#4d4d4d&quot; style=&quot;font-size: 24px;&quot;&gt;Region: A&lt;/font&gt;&lt;/h1&gt;" style="text;html=1;strokeColor=none;fillColor=none;spacing=5;spacingTop=-20;whiteSpace=wrap;overflow=hidden;rounded=0;strokeWidth=4;movable=1;resizable=1;rotatable=1;deletable=1;editable=1;connectable=1;" parent="1" vertex="1">
          <mxGeometry x="240" y="80" width="150" height="40" as="geometry" />
        </mxCell>
        <mxCell id="193" value="&lt;h1 style=&quot;line-height: 120%;&quot;&gt;&lt;font color=&quot;#4d4d4d&quot; style=&quot;font-size: 24px;&quot;&gt;AWS&lt;/font&gt;&lt;/h1&gt;" style="text;html=1;strokeColor=none;fillColor=none;spacing=5;spacingTop=-20;whiteSpace=wrap;overflow=hidden;rounded=0;strokeWidth=4;movable=1;resizable=1;rotatable=1;deletable=1;editable=1;connectable=1;" parent="1" vertex="1">
          <mxGeometry x="160" y="40" width="80" height="40" as="geometry" />
        </mxCell>
        <mxCell id="282" value="" style="outlineConnect=0;dashed=0;verticalLabelPosition=bottom;verticalAlign=top;align=center;html=1;shape=mxgraph.aws3.cloud_2;fillColor=#232f3e;gradientColor=none;" parent="1" vertex="1">
          <mxGeometry x="90" y="50" width="60" height="60" as="geometry" />
        </mxCell>
        <mxCell id="288" value="" style="outlineConnect=0;dashed=0;verticalLabelPosition=bottom;verticalAlign=top;align=center;html=1;shape=mxgraph.aws3.vpc;fillColor=#F58536;gradientColor=none;strokeColor=#A35E24;strokeWidth=4;" parent="1" vertex="1">
          <mxGeometry x="250" y="130" width="60" height="60" as="geometry" />
        </mxCell>
        <mxCell id="337" value="" style="group" parent="1" vertex="1" connectable="0">
          <mxGeometry x="400" y="440" width="80" height="90" as="geometry" />
        </mxCell>
        <mxCell id="289" value="" style="rounded=0;whiteSpace=wrap;html=1;strokeColor=#E98636;fillColor=#FFFFFF;strokeWidth=4;" parent="337" vertex="1">
          <mxGeometry width="80" height="80" as="geometry" />
        </mxCell>
        <mxCell id="290" value="" style="outlineConnect=0;dashed=0;verticalLabelPosition=bottom;verticalAlign=top;align=center;html=1;shape=mxgraph.aws3.vpc_nat_gateway;fillColor=#F58536;gradientColor=none;strokeColor=#A35E24;strokeWidth=4;" parent="337" vertex="1">
          <mxGeometry x="10.5" y="10" width="59" height="60" as="geometry" />
        </mxCell>
        <mxCell id="338" value="" style="group" parent="1" vertex="1" connectable="0">
          <mxGeometry x="400" y="320" width="80" height="80" as="geometry" />
        </mxCell>
        <mxCell id="286" value="" style="rounded=0;whiteSpace=wrap;html=1;strokeColor=#E98636;fillColor=#FFFFFF;strokeWidth=4;" parent="338" vertex="1">
          <mxGeometry width="80" height="80" as="geometry" />
        </mxCell>
        <mxCell id="287" value="" style="outlineConnect=0;dashed=0;verticalLabelPosition=bottom;verticalAlign=top;align=center;html=1;shape=mxgraph.aws3.application_load_balancer;fillColor=#F58536;gradientColor=none;strokeColor=#A35E24;strokeWidth=4;" parent="338" vertex="1">
          <mxGeometry x="10" y="10" width="60" height="60" as="geometry" />
        </mxCell>
        <mxCell id="345" value="&lt;font size=&quot;1&quot; color=&quot;#ffffff&quot;&gt;&lt;b style=&quot;font-size: 14px;&quot;&gt;3&lt;/b&gt;&lt;/font&gt;" style="ellipse;whiteSpace=wrap;html=1;aspect=fixed;labelBackgroundColor=none;fillStyle=auto;strokeColor=#4D4D4D;strokeWidth=4;fontSize=18;fontColor=#4D4D4D;fillColor=#4D4D4D;gradientColor=none;gradientDirection=south;align=center;" parent="1" vertex="1">
          <mxGeometry x="430" y="390" width="20" height="20" as="geometry" />
        </mxCell>
        <mxCell id="348" value="" style="shadow=0;dashed=0;html=1;strokeColor=none;fillColor=#4495D1;labelPosition=center;verticalLabelPosition=bottom;verticalAlign=top;align=center;outlineConnect=0;shape=mxgraph.veeam.globe;strokeWidth=4;" parent="1" vertex="1">
          <mxGeometry x="170" y="90" width="60" height="60" as="geometry" />
        </mxCell>
        <mxCell id="349" value="" style="outlineConnect=0;dashed=0;verticalLabelPosition=bottom;verticalAlign=top;align=center;html=1;shape=mxgraph.aws3.vpc;fillColor=#242c3c;gradientColor=none;strokeColor=#A35E24;strokeWidth=4;" parent="1" vertex="1">
          <mxGeometry x="330" y="170" width="60" height="60" as="geometry" />
        </mxCell>
        <mxCell id="353" value="" style="rounded=0;whiteSpace=wrap;html=1;strokeColor=#242c3c;strokeWidth=4;fillColor=#cccccc;movable=1;resizable=1;rotatable=1;deletable=1;editable=1;connectable=1;gradientColor=none;" parent="1" vertex="1">
          <mxGeometry x="1240" y="160" width="240" height="400" as="geometry" />
        </mxCell>
        <mxCell id="356" value="" style="outlineConnect=0;dashed=0;verticalLabelPosition=bottom;verticalAlign=top;align=center;html=1;shape=mxgraph.aws3.vpc;fillColor=#242c3c;gradientColor=none;strokeColor=#A35E24;strokeWidth=4;" parent="1" vertex="1">
          <mxGeometry x="1250" y="170" width="60" height="60" as="geometry" />
        </mxCell>
        <mxCell id="357" value="&lt;h1 style=&quot;line-height: 120%;&quot;&gt;&lt;font color=&quot;#4d4d4d&quot; style=&quot;font-size: 24px;&quot;&gt;Subnets: Database&lt;/font&gt;&lt;/h1&gt;" style="text;html=1;strokeColor=none;fillColor=none;spacing=5;spacingTop=-20;whiteSpace=wrap;overflow=hidden;rounded=0;strokeWidth=4;movable=1;resizable=1;rotatable=1;deletable=1;editable=1;connectable=1;" parent="1" vertex="1">
          <mxGeometry x="1320" y="160" width="160" height="70" as="geometry" />
        </mxCell>
        <mxCell id="364" value="" style="group" parent="1" vertex="1" connectable="0">
          <mxGeometry x="1320" y="320" width="80" height="80" as="geometry" />
        </mxCell>
        <mxCell id="362" value="" style="rounded=0;whiteSpace=wrap;html=1;strokeColor=#4471b9;strokeWidth=4;fillColor=#FFFFFF;movable=1;resizable=1;rotatable=1;deletable=1;editable=1;connectable=1;" parent="364" vertex="1">
          <mxGeometry width="80" height="80" as="geometry" />
        </mxCell>
        <mxCell id="359" value="" style="outlineConnect=0;dashed=0;verticalLabelPosition=bottom;verticalAlign=top;align=center;html=1;shape=mxgraph.aws3.rds;fillColor=#2E73B8;gradientColor=none;strokeColor=#242c3c;strokeWidth=4;" parent="364" vertex="1">
          <mxGeometry x="10" y="10" width="60" height="60" as="geometry" />
        </mxCell>
        <mxCell id="367" value="" style="group" parent="1" vertex="1" connectable="0">
          <mxGeometry x="1320" y="440" width="80" height="80" as="geometry" />
        </mxCell>
        <mxCell id="368" value="" style="rounded=0;whiteSpace=wrap;html=1;strokeColor=#4471b9;strokeWidth=4;fillColor=#FFFFFF;movable=1;resizable=1;rotatable=1;deletable=1;editable=1;connectable=1;" parent="367" vertex="1">
          <mxGeometry width="80" height="80" as="geometry" />
        </mxCell>
        <mxCell id="369" value="" style="outlineConnect=0;dashed=0;verticalLabelPosition=bottom;verticalAlign=top;align=center;html=1;shape=mxgraph.aws3.rds;fillColor=#2E73B8;gradientColor=none;strokeColor=#242c3c;strokeWidth=4;" parent="367" vertex="1">
          <mxGeometry x="10" y="10" width="60" height="60" as="geometry" />
        </mxCell>
        <mxCell id="372" value="&lt;font size=&quot;1&quot; color=&quot;#ffffff&quot;&gt;&lt;b style=&quot;font-size: 14px;&quot;&gt;8&lt;/b&gt;&lt;/font&gt;" style="ellipse;whiteSpace=wrap;html=1;aspect=fixed;labelBackgroundColor=none;fillStyle=auto;strokeColor=#4D4D4D;strokeWidth=4;fontSize=18;fontColor=#4D4D4D;fillColor=#4D4D4D;gradientColor=none;gradientDirection=south;align=center;" parent="1" vertex="1">
          <mxGeometry x="1350" y="410" width="20" height="20" as="geometry" />
        </mxCell>
        <mxCell id="373" value="" style="endArrow=block;html=1;fontSize=24;strokeColor=#4D4D4D;strokeWidth=4;movable=1;resizable=1;rotatable=1;deletable=1;editable=1;connectable=1;endFill=1;entryX=1;entryY=0.5;entryDx=0;entryDy=0;startArrow=none;edgeStyle=entityRelationEdgeStyle;exitX=0.1;exitY=0.727;exitDx=0;exitDy=0;exitPerimeter=0;" parent="1" source="351" target="289" edge="1">
          <mxGeometry width="50" height="50" relative="1" as="geometry">
            <mxPoint x="620" y="480" as="sourcePoint" />
            <mxPoint x="730" y="370" as="targetPoint" />
          </mxGeometry>
        </mxCell>
        <mxCell id="380" value="" style="endArrow=none;html=1;fontSize=24;strokeColor=#4D4D4D;strokeWidth=4;movable=1;resizable=1;rotatable=1;deletable=1;editable=1;connectable=1;endFill=1;entryX=0;entryY=0.5;entryDx=0;entryDy=0;startArrow=none;edgeStyle=orthogonalEdgeStyle;exitX=1;exitY=0.5;exitDx=0;exitDy=0;" parent="1" source="286" target="377" edge="1">
          <mxGeometry width="50" height="50" relative="1" as="geometry">
            <mxPoint x="480" y="360" as="sourcePoint" />
            <mxPoint x="720" y="360" as="targetPoint" />
            <Array as="points" />
          </mxGeometry>
        </mxCell>
        <mxCell id="377" value="&lt;font size=&quot;1&quot; color=&quot;#ffffff&quot;&gt;&lt;b style=&quot;font-size: 14px;&quot;&gt;4&lt;/b&gt;&lt;/font&gt;" style="ellipse;whiteSpace=wrap;html=1;aspect=fixed;labelBackgroundColor=none;fillStyle=auto;strokeColor=#4D4D4D;strokeWidth=4;fontSize=18;fontColor=#4D4D4D;fillColor=#4D4D4D;gradientColor=none;gradientDirection=south;align=center;" parent="1" vertex="1">
          <mxGeometry x="490" y="350" width="20" height="20" as="geometry" />
        </mxCell>
        <mxCell id="351" value="" style="rounded=0;whiteSpace=wrap;html=1;strokeColor=#242c3c;strokeWidth=4;fillColor=#cccccc;movable=1;resizable=1;rotatable=1;deletable=1;editable=1;connectable=1;gradientColor=none;" parent="1" vertex="1">
          <mxGeometry x="600" y="160" width="600" height="440" as="geometry" />
        </mxCell>
        <mxCell id="354" value="" style="outlineConnect=0;dashed=0;verticalLabelPosition=bottom;verticalAlign=top;align=center;html=1;shape=mxgraph.aws3.vpc;fillColor=#242c3c;gradientColor=none;strokeColor=#A35E24;strokeWidth=4;" parent="1" vertex="1">
          <mxGeometry x="610" y="170" width="60" height="60" as="geometry" />
        </mxCell>
        <mxCell id="355" value="&lt;h1 style=&quot;line-height: 120%;&quot;&gt;&lt;font color=&quot;#4d4d4d&quot; style=&quot;font-size: 24px;&quot;&gt;Subnets: Private&lt;/font&gt;&lt;/h1&gt;" style="text;html=1;strokeColor=none;fillColor=none;spacing=5;spacingTop=-20;whiteSpace=wrap;overflow=hidden;rounded=0;strokeWidth=4;movable=1;resizable=1;rotatable=1;deletable=1;editable=1;connectable=1;" parent="1" vertex="1">
          <mxGeometry x="680" y="160" width="210" height="40" as="geometry" />
        </mxCell>
        <mxCell id="40" value="" style="edgeStyle=none;html=1;movable=1;resizable=1;rotatable=1;deletable=1;editable=1;connectable=1;" parent="1" edge="1">
          <mxGeometry relative="1" as="geometry">
            <mxPoint x="1040" y="567.0967741935485" as="sourcePoint" />
            <mxPoint x="1040" y="567.0967741935485" as="targetPoint" />
          </mxGeometry>
        </mxCell>
        <mxCell id="67" value="" style="rounded=0;whiteSpace=wrap;html=1;strokeColor=#5156DF;strokeWidth=4;fillColor=#dcddf9;movable=1;resizable=1;rotatable=1;deletable=1;editable=1;connectable=1;gradientColor=none;" parent="1" vertex="1">
          <mxGeometry x="680" y="200" width="480" height="360" as="geometry" />
        </mxCell>
        <mxCell id="303" value="" style="sketch=0;points=[[0,0,0],[0.25,0,0],[0.5,0,0],[0.75,0,0],[1,0,0],[0,1,0],[0.25,1,0],[0.5,1,0],[0.75,1,0],[1,1,0],[0,0.25,0],[0,0.5,0],[0,0.75,0],[1,0.25,0],[1,0.5,0],[1,0.75,0]];outlineConnect=0;fontColor=#232F3E;gradientColor=none;gradientDirection=north;fillColor=#425ade;strokeColor=#ffffff;dashed=0;verticalLabelPosition=bottom;verticalAlign=top;align=center;html=1;fontSize=12;fontStyle=0;aspect=fixed;shape=mxgraph.aws4.resourceIcon;resIcon=mxgraph.aws4.eks;strokeWidth=4;" parent="1" vertex="1">
          <mxGeometry x="690" y="210" width="58" height="58" as="geometry" />
        </mxCell>
        <mxCell id="304" value="&lt;h1 style=&quot;line-height: 120%;&quot;&gt;&lt;font color=&quot;#4d4d4d&quot; style=&quot;font-size: 24px;&quot;&gt;Kubernetes: A&lt;/font&gt;&lt;/h1&gt;" style="text;html=1;strokeColor=none;fillColor=none;spacing=5;spacingTop=-20;whiteSpace=wrap;overflow=hidden;rounded=0;strokeWidth=4;movable=1;resizable=1;rotatable=1;deletable=1;editable=1;connectable=1;" parent="1" vertex="1">
          <mxGeometry x="748" y="200" width="172" height="40" as="geometry" />
        </mxCell>
        <mxCell id="305" value="" style="group" parent="1" vertex="1" connectable="0">
          <mxGeometry x="880" y="320" width="80" height="90" as="geometry" />
        </mxCell>
        <mxCell id="306" value="" style="group" parent="305" vertex="1" connectable="0">
          <mxGeometry width="80" height="90" as="geometry" />
        </mxCell>
        <mxCell id="307" value="" style="rounded=0;whiteSpace=wrap;html=1;strokeColor=#2875e2;strokeWidth=4;fillColor=#FFFFFF;movable=1;resizable=1;rotatable=1;deletable=1;editable=1;connectable=1;" parent="306" vertex="1">
          <mxGeometry width="80" height="80" as="geometry" />
        </mxCell>
        <mxCell id="308" value="" style="sketch=0;html=1;dashed=0;whitespace=wrap;fillColor=#2875E2;strokeColor=#ffffff;points=[[0.005,0.63,0],[0.1,0.2,0],[0.9,0.2,0],[0.5,0,0],[0.995,0.63,0],[0.72,0.99,0],[0.5,1,0],[0.28,0.99,0]];verticalLabelPosition=bottom;align=center;verticalAlign=top;shape=mxgraph.kubernetes.icon;prIcon=pod;strokeWidth=8;fontSize=24;fontColor=#333333;movable=1;resizable=1;rotatable=1;deletable=1;editable=1;connectable=1;" parent="306" vertex="1">
          <mxGeometry x="10" y="10" width="60" height="60" as="geometry" />
        </mxCell>
        <mxCell id="309" value="" style="group" parent="1" vertex="1" connectable="0">
          <mxGeometry x="880" y="440" width="80" height="90" as="geometry" />
        </mxCell>
        <mxCell id="310" value="" style="group" parent="309" vertex="1" connectable="0">
          <mxGeometry width="80" height="90" as="geometry" />
        </mxCell>
        <mxCell id="311" value="" style="rounded=0;whiteSpace=wrap;html=1;strokeColor=#2875e2;strokeWidth=4;fillColor=#FFFFFF;movable=1;resizable=1;rotatable=1;deletable=1;editable=1;connectable=1;" parent="310" vertex="1">
          <mxGeometry width="80" height="80" as="geometry" />
        </mxCell>
        <mxCell id="312" value="" style="sketch=0;html=1;dashed=0;whitespace=wrap;fillColor=#2875E2;strokeColor=#ffffff;points=[[0.005,0.63,0],[0.1,0.2,0],[0.9,0.2,0],[0.5,0,0],[0.995,0.63,0],[0.72,0.99,0],[0.5,1,0],[0.28,0.99,0]];verticalLabelPosition=bottom;align=center;verticalAlign=top;shape=mxgraph.kubernetes.icon;prIcon=pod;strokeWidth=8;fontSize=24;fontColor=#333333;movable=1;resizable=1;rotatable=1;deletable=1;editable=1;connectable=1;" parent="310" vertex="1">
          <mxGeometry x="10" y="10" width="60" height="60" as="geometry" />
        </mxCell>
        <mxCell id="320" value="" style="group" parent="1" vertex="1" connectable="0">
          <mxGeometry x="1040" y="440" width="80" height="90" as="geometry" />
        </mxCell>
        <mxCell id="321" value="" style="group" parent="320" vertex="1" connectable="0">
          <mxGeometry width="80" height="90" as="geometry" />
        </mxCell>
        <mxCell id="322" value="" style="rounded=0;whiteSpace=wrap;html=1;strokeColor=#2875e2;strokeWidth=4;fillColor=#FFFFFF;movable=1;resizable=1;rotatable=1;deletable=1;editable=1;connectable=1;" parent="321" vertex="1">
          <mxGeometry width="80" height="80" as="geometry" />
        </mxCell>
        <mxCell id="323" value="" style="sketch=0;html=1;dashed=0;whitespace=wrap;fillColor=#2875E2;strokeColor=#ffffff;points=[[0.005,0.63,0],[0.1,0.2,0],[0.9,0.2,0],[0.5,0,0],[0.995,0.63,0],[0.72,0.99,0],[0.5,1,0],[0.28,0.99,0]];verticalLabelPosition=bottom;align=center;verticalAlign=top;shape=mxgraph.kubernetes.icon;prIcon=pod;strokeWidth=8;fontSize=24;fontColor=#333333;movable=1;resizable=1;rotatable=1;deletable=1;editable=1;connectable=1;" parent="321" vertex="1">
          <mxGeometry x="10" y="10" width="60" height="60" as="geometry" />
        </mxCell>
        <mxCell id="324" value="" style="group" parent="1" vertex="1" connectable="0">
          <mxGeometry x="1040" y="320" width="80" height="90" as="geometry" />
        </mxCell>
        <mxCell id="325" value="" style="group" parent="324" vertex="1" connectable="0">
          <mxGeometry width="80" height="90" as="geometry" />
        </mxCell>
        <mxCell id="326" value="" style="rounded=0;whiteSpace=wrap;html=1;strokeColor=#2875e2;strokeWidth=4;fillColor=#FFFFFF;movable=1;resizable=1;rotatable=1;deletable=1;editable=1;connectable=1;" parent="325" vertex="1">
          <mxGeometry width="80" height="80" as="geometry" />
        </mxCell>
        <mxCell id="327" value="" style="sketch=0;html=1;dashed=0;whitespace=wrap;fillColor=#2875E2;strokeColor=#ffffff;points=[[0.005,0.63,0],[0.1,0.2,0],[0.9,0.2,0],[0.5,0,0],[0.995,0.63,0],[0.72,0.99,0],[0.5,1,0],[0.28,0.99,0]];verticalLabelPosition=bottom;align=center;verticalAlign=top;shape=mxgraph.kubernetes.icon;prIcon=pod;strokeWidth=8;fontSize=24;fontColor=#333333;movable=1;resizable=1;rotatable=1;deletable=1;editable=1;connectable=1;" parent="325" vertex="1">
          <mxGeometry x="10" y="10" width="60" height="60" as="geometry" />
        </mxCell>
        <mxCell id="329" value="" style="group" parent="1" vertex="1" connectable="0">
          <mxGeometry x="720" y="320" width="80" height="90" as="geometry" />
        </mxCell>
        <mxCell id="330" value="" style="group" parent="329" vertex="1" connectable="0">
          <mxGeometry width="80" height="90" as="geometry" />
        </mxCell>
        <mxCell id="331" value="" style="rounded=0;whiteSpace=wrap;html=1;strokeColor=#2875e2;strokeWidth=4;fillColor=#FFFFFF;movable=1;resizable=1;rotatable=1;deletable=1;editable=1;connectable=1;" parent="330" vertex="1">
          <mxGeometry width="80" height="80" as="geometry" />
        </mxCell>
        <mxCell id="332" value="" style="sketch=0;html=1;dashed=0;whitespace=wrap;fillColor=#2875E2;strokeColor=#ffffff;points=[[0.005,0.63,0],[0.1,0.2,0],[0.9,0.2,0],[0.5,0,0],[0.995,0.63,0],[0.72,0.99,0],[0.5,1,0],[0.28,0.99,0]];verticalLabelPosition=bottom;align=center;verticalAlign=top;shape=mxgraph.kubernetes.icon;prIcon=pod;strokeWidth=8;fontSize=24;fontColor=#333333;movable=1;resizable=1;rotatable=1;deletable=1;editable=1;connectable=1;" parent="330" vertex="1">
          <mxGeometry x="10" y="10" width="60" height="60" as="geometry" />
        </mxCell>
        <mxCell id="346" value="&lt;font size=&quot;1&quot; color=&quot;#ffffff&quot;&gt;&lt;b style=&quot;font-size: 14px;&quot;&gt;5&lt;/b&gt;&lt;/font&gt;" style="ellipse;whiteSpace=wrap;html=1;aspect=fixed;labelBackgroundColor=none;fillStyle=auto;strokeColor=#4D4D4D;strokeWidth=4;fontSize=18;fontColor=#4D4D4D;fillColor=#4D4D4D;gradientColor=none;gradientDirection=south;align=center;" parent="330" vertex="1">
          <mxGeometry x="30" y="70" width="20" height="20" as="geometry" />
        </mxCell>
        <mxCell id="341" value="" style="endArrow=block;html=1;fontSize=24;strokeColor=#4D4D4D;strokeWidth=4;movable=1;resizable=1;rotatable=1;deletable=1;editable=1;connectable=1;endFill=1;entryX=0;entryY=0.5;entryDx=0;entryDy=0;startArrow=none;edgeStyle=orthogonalEdgeStyle;exitX=1;exitY=0.5;exitDx=0;exitDy=0;" parent="1" source="331" target="307" edge="1">
          <mxGeometry width="50" height="50" relative="1" as="geometry">
            <mxPoint x="490" y="370" as="sourcePoint" />
            <mxPoint x="730" y="370" as="targetPoint" />
            <Array as="points">
              <mxPoint x="840" y="360" />
              <mxPoint x="840" y="360" />
            </Array>
          </mxGeometry>
        </mxCell>
        <mxCell id="342" value="" style="endArrow=block;html=1;fontSize=24;strokeColor=#4D4D4D;strokeWidth=4;movable=1;resizable=1;rotatable=1;deletable=1;editable=1;connectable=1;endFill=1;entryX=0;entryY=0.5;entryDx=0;entryDy=0;startArrow=none;edgeStyle=entityRelationEdgeStyle;exitX=1;exitY=0.5;exitDx=0;exitDy=0;" parent="1" source="331" target="311" edge="1">
          <mxGeometry width="50" height="50" relative="1" as="geometry">
            <mxPoint x="810" y="370" as="sourcePoint" />
            <mxPoint x="890" y="370" as="targetPoint" />
          </mxGeometry>
        </mxCell>
        <mxCell id="343" value="" style="endArrow=block;html=1;fontSize=24;strokeColor=#4D4D4D;strokeWidth=4;movable=1;resizable=1;rotatable=1;deletable=1;editable=1;connectable=1;endFill=1;entryX=0;entryY=0.5;entryDx=0;entryDy=0;startArrow=none;edgeStyle=entityRelationEdgeStyle;exitX=1;exitY=0.5;exitDx=0;exitDy=0;" parent="1" source="311" target="322" edge="1">
          <mxGeometry width="50" height="50" relative="1" as="geometry">
            <mxPoint x="810" y="370" as="sourcePoint" />
            <mxPoint x="890" y="490" as="targetPoint" />
          </mxGeometry>
        </mxCell>
        <mxCell id="344" value="" style="endArrow=block;html=1;fontSize=24;strokeColor=#4D4D4D;strokeWidth=4;movable=1;resizable=1;rotatable=1;deletable=1;editable=1;connectable=1;endFill=1;entryX=0;entryY=0.5;entryDx=0;entryDy=0;startArrow=none;edgeStyle=entityRelationEdgeStyle;exitX=1;exitY=0.5;exitDx=0;exitDy=0;" parent="1" source="307" target="326" edge="1">
          <mxGeometry width="50" height="50" relative="1" as="geometry">
            <mxPoint x="820" y="380" as="sourcePoint" />
            <mxPoint x="900" y="500" as="targetPoint" />
          </mxGeometry>
        </mxCell>
        <mxCell id="358" value="&lt;font size=&quot;1&quot; color=&quot;#ffffff&quot;&gt;&lt;b style=&quot;font-size: 14px;&quot;&gt;6&lt;/b&gt;&lt;/font&gt;" style="ellipse;whiteSpace=wrap;html=1;aspect=fixed;labelBackgroundColor=none;fillStyle=auto;strokeColor=#4D4D4D;strokeWidth=4;fontSize=18;fontColor=#4D4D4D;fillColor=#4D4D4D;gradientColor=none;gradientDirection=south;align=center;" parent="1" vertex="1">
          <mxGeometry x="990" y="410" width="20" height="20" as="geometry" />
        </mxCell>
        <mxCell id="340" value="" style="endArrow=block;html=1;fontSize=24;strokeColor=#4D4D4D;strokeWidth=4;movable=1;resizable=1;rotatable=1;deletable=1;editable=1;connectable=1;endFill=1;entryX=0;entryY=0.5;entryDx=0;entryDy=0;startArrow=none;edgeStyle=orthogonalEdgeStyle;exitX=1;exitY=0.5;exitDx=0;exitDy=0;" parent="1" source="377" target="331" edge="1">
          <mxGeometry width="50" height="50" relative="1" as="geometry">
            <mxPoint x="50" y="370" as="sourcePoint" />
            <mxPoint x="410" y="370" as="targetPoint" />
            <Array as="points">
              <mxPoint x="600" y="360" />
              <mxPoint x="600" y="360" />
            </Array>
          </mxGeometry>
        </mxCell>
        <mxCell id="371" value="" style="endArrow=block;html=1;fontSize=24;strokeColor=#4D4D4D;strokeWidth=4;movable=1;resizable=1;rotatable=1;deletable=1;editable=1;connectable=1;endFill=1;entryX=0;entryY=0.5;entryDx=0;entryDy=0;startArrow=none;edgeStyle=entityRelationEdgeStyle;exitX=1;exitY=0.5;exitDx=0;exitDy=0;" parent="1" source="326" target="368" edge="1">
          <mxGeometry width="50" height="50" relative="1" as="geometry">
            <mxPoint x="1130" y="370" as="sourcePoint" />
            <mxPoint x="1330" y="370" as="targetPoint" />
          </mxGeometry>
        </mxCell>
        <mxCell id="370" value="" style="endArrow=block;html=1;fontSize=24;strokeColor=#4D4D4D;strokeWidth=4;movable=1;resizable=1;rotatable=1;deletable=1;editable=1;connectable=1;endFill=1;entryX=0;entryY=0.5;entryDx=0;entryDy=0;startArrow=none;edgeStyle=entityRelationEdgeStyle;exitX=1;exitY=0.5;exitDx=0;exitDy=0;" parent="1" source="378" target="362" edge="1">
          <mxGeometry width="50" height="50" relative="1" as="geometry">
            <mxPoint x="970" y="370" as="sourcePoint" />
            <mxPoint x="1050" y="370" as="targetPoint" />
          </mxGeometry>
        </mxCell>
        <mxCell id="381" value="" style="endArrow=none;html=1;fontSize=24;strokeColor=#4D4D4D;strokeWidth=4;movable=1;resizable=1;rotatable=1;deletable=1;editable=1;connectable=1;endFill=1;entryX=0;entryY=0.5;entryDx=0;entryDy=0;startArrow=none;edgeStyle=entityRelationEdgeStyle;exitX=1;exitY=0.5;exitDx=0;exitDy=0;" parent="1" source="326" target="378" edge="1">
          <mxGeometry width="50" height="50" relative="1" as="geometry">
            <mxPoint x="1120" y="360" as="sourcePoint" />
            <mxPoint x="1320" y="360" as="targetPoint" />
          </mxGeometry>
        </mxCell>
        <mxCell id="378" value="&lt;font size=&quot;1&quot; color=&quot;#ffffff&quot;&gt;&lt;b style=&quot;font-size: 14px;&quot;&gt;7&lt;/b&gt;&lt;/font&gt;" style="ellipse;whiteSpace=wrap;html=1;aspect=fixed;labelBackgroundColor=none;fillStyle=auto;strokeColor=#4D4D4D;strokeWidth=4;fontSize=18;fontColor=#4D4D4D;fillColor=#4D4D4D;gradientColor=none;gradientDirection=south;align=center;" parent="1" vertex="1">
          <mxGeometry x="1130" y="350" width="20" height="20" as="geometry" />
        </mxCell>
        <mxCell id="375" value="&lt;font size=&quot;1&quot; color=&quot;#ffffff&quot;&gt;&lt;b style=&quot;font-size: 14px;&quot;&gt;9&lt;/b&gt;&lt;/font&gt;" style="ellipse;whiteSpace=wrap;html=1;aspect=fixed;labelBackgroundColor=none;fillStyle=auto;strokeColor=#4D4D4D;strokeWidth=4;fontSize=18;fontColor=#4D4D4D;fillColor=#4D4D4D;gradientColor=none;gradientDirection=south;align=center;" parent="1" vertex="1">
          <mxGeometry x="570" y="470" width="20" height="20" as="geometry" />
        </mxCell>
        <mxCell id="384" value="" style="ellipse;shape=cloud;whiteSpace=wrap;html=1;strokeColor=#ABABAB;strokeWidth=4;fontSize=24;fontColor=#4D4D4D;fillColor=#D6D6D6;movable=1;resizable=1;rotatable=1;deletable=1;editable=1;connectable=1;" parent="1" vertex="1">
          <mxGeometry x="-50" y="280" width="160" height="160" as="geometry" />
        </mxCell>
        <mxCell id="374" value="" style="endArrow=block;html=1;fontSize=24;strokeColor=#4D4D4D;strokeWidth=4;movable=1;resizable=1;rotatable=1;deletable=1;editable=1;connectable=1;endFill=1;startArrow=none;edgeStyle=orthogonalEdgeStyle;exitX=0;exitY=0.5;exitDx=0;exitDy=0;" parent="1" source="289" edge="1">
          <mxGeometry width="50" height="50" relative="1" as="geometry">
            <mxPoint x="50" y="370" as="sourcePoint" />
            <mxPoint x="60" y="360" as="targetPoint" />
            <Array as="points">
              <mxPoint x="200" y="480" />
              <mxPoint x="200" y="360" />
            </Array>
          </mxGeometry>
        </mxCell>
        <mxCell id="382" value="&lt;font size=&quot;1&quot; color=&quot;#ffffff&quot;&gt;&lt;b style=&quot;font-size: 14px;&quot;&gt;10&lt;/b&gt;&lt;/font&gt;" style="ellipse;whiteSpace=wrap;html=1;aspect=fixed;labelBackgroundColor=none;fillStyle=auto;strokeColor=#4D4D4D;strokeWidth=4;fontSize=18;fontColor=#4D4D4D;fillColor=#4D4D4D;gradientColor=none;gradientDirection=south;align=center;" parent="1" vertex="1">
          <mxGeometry x="190" y="410" width="20" height="20" as="geometry" />
        </mxCell>
        <mxCell id="292" value="" style="rounded=0;whiteSpace=wrap;html=1;strokeColor=#E98636;fillColor=#FFFFFF;strokeWidth=4;" parent="1" vertex="1">
          <mxGeometry x="240" y="440" width="80" height="80" as="geometry" />
        </mxCell>
        <mxCell id="291" value="" style="outlineConnect=0;dashed=0;verticalLabelPosition=bottom;verticalAlign=top;align=center;html=1;shape=mxgraph.aws3.internet_gateway;fillColor=#F58536;gradientColor=none;strokeColor=#A35E24;strokeWidth=4;" parent="1" vertex="1">
          <mxGeometry x="250" y="450" width="60" height="60" as="geometry" />
        </mxCell>
        <mxCell id="267" value="&lt;font size=&quot;1&quot; color=&quot;#ffffff&quot;&gt;&lt;b style=&quot;font-size: 14px;&quot;&gt;1&lt;/b&gt;&lt;/font&gt;" style="ellipse;whiteSpace=wrap;html=1;aspect=fixed;labelBackgroundColor=none;fillStyle=auto;strokeColor=#4D4D4D;strokeWidth=4;fontSize=18;fontColor=#4D4D4D;fillColor=#4D4D4D;gradientColor=none;gradientDirection=south;align=center;" parent="1" vertex="1">
          <mxGeometry x="20" y="420" width="20" height="20" as="geometry" />
        </mxCell>
        <mxCell id="385" value="&lt;font size=&quot;1&quot; color=&quot;#ffffff&quot;&gt;&lt;b style=&quot;font-size: 14px;&quot;&gt;2&lt;/b&gt;&lt;/font&gt;" style="ellipse;whiteSpace=wrap;html=1;aspect=fixed;labelBackgroundColor=none;fillStyle=auto;strokeColor=#4D4D4D;strokeWidth=4;fontSize=18;fontColor=#4D4D4D;fillColor=#4D4D4D;gradientColor=none;gradientDirection=south;align=center;" parent="1" vertex="1">
          <mxGeometry x="270" y="350" width="20" height="20" as="geometry" />
        </mxCell>
      </root>
    </mxGraphModel>
  </diagram>
</mxfile>
